<?xml version="1.0" standalone="no"?>
<!DOCTYPE svg PUBLIC "-//W3C//DTD SVG 20010904//EN"
 "http://www.w3.org/TR/2001/REC-SVG-20010904/DTD/svg10.dtd">
<svg version="1.0" xmlns="http://www.w3.org/2000/svg"
 width="512.000000pt" height="512.000000pt" viewBox="0 0 512.000000 512.000000"
 preserveAspectRatio="xMidYMid meet">

<g transform="translate(0.000000,512.000000) scale(0.100000,-0.100000)"
fill="#000000">
<path d="M795 4650 c-324 -188 -600 -353 -612 -366 l-23 -25 0 -684 c0 -475 3
-691 11 -708 8 -17 172 -117 580 -353 l569 -329 0 -666 c0 -620 1 -668 18
-688 9 -11 281 -174 605 -361 420 -243 596 -340 617 -340 22 0 194 95 613 341
320 187 592 351 605 365 l22 25 0 662 0 662 373 215 c723 416 764 441 776 467
8 17 11 230 11 708 l0 684 -22 25 c-36 39 -1199 708 -1224 703 -12 -2 -276
-151 -587 -331 l-566 -328 -566 328 c-312 180 -577 329 -588 331 -15 3 -210
-105 -612 -337z m1150 -148 l530 -307 3 -626 2 -625 -539 -312 -540 -312 -541
312 -540 312 2 625 3 625 530 308 c292 168 537 307 545 307 8 0 254 -138 545
-307z m2320 0 l530 -307 3 -626 2 -625 -539 -312 -540 -312 -541 312 -540 312
2 625 3 625 530 308 c292 168 537 307 545 307 8 0 254 -138 545 -307z m-1165
-2014 l540 -312 -2 -625 -3 -626 -530 -307 c-291 -169 -535 -307 -542 -308
-10 0 -815 460 -1040 594 l-43 26 0 623 0 623 538 311 c295 171 538 312 540
312 1 1 245 -139 542 -311z" fill="#000000" stroke="#000000" stroke-width="250"/>
<path d="M1035 4309 c-465 -268 -434 -248 -446 -289 -6 -22 -9 -192 -7 -468
l3 -434 28 -24 c34 -29 66 -31 101 -3 l26 20 2 421 3 420 345 198 c190 109
355 208 368 219 30 27 30 80 -1 109 -47 44 -68 35 -422 -169z" fill="#000000" stroke="#000000" stroke-width="250"/>
<path d="M3689 4492 c-8 -4 -183 -104 -388 -222 -328 -189 -375 -219 -388
-248 -11 -27 -13 -114 -11 -472 3 -439 3 -439 25 -462 28 -28 84 -29 113 -3
20 18 20 27 20 441 l0 423 68 39 c37 22 198 115 358 207 293 168 314 184 314
236 0 45 -65 81 -111 61z" fill="#000000" stroke="#000000" stroke-width="250"/>
<path d="M2160 2264 c-206 -118 -384 -224 -395 -235 -19 -19 -20 -33 -20 -480
l0 -461 24 -19 c31 -25 85 -25 111 1 19 19 20 33 20 438 l0 417 348 200 c191
110 357 209 370 222 46 46 10 133 -56 133 -18 0 -155 -73 -402 -216z" fill="#000000" stroke="#000000" stroke-width="250" />
</g>
</svg>
